<svg width="1500" height="2000" viewBox="0 0 1500 2000" fill="none" xmlns="http://www.w3.org/2000/svg">
<g clip-path="url(#clip0_1_3)">
<rect width="1500" height="2000" transform="translate(1500 2000) rotate(-180)" fill="#7BB3AA"/>
<path d="M491 453C496.6 189.4 693 41.1667 808.5 0H-6.10352e-05V1015.5C133.5 1015.5 484 782.5 491 453Z" fill="#01678D"/>
<path d="M968.677 1184.56C958.591 1659.06 540.023 1925.9 332 2000H1853V172C1612.56 172 981.284 591.423 968.677 1184.56Z" fill="#028595"/>
<path d="M1890.67 1182.81C1769.98 1310.65 1659.42 1466.37 1494.04 1539.75C1426.13 1569.87 1331.05 1585.51 1265.1 1542.14C1211.79 1507.07 1207.2 1435.57 1213.27 1378.24C1222.41 1292.26 1255.56 1207.43 1293.91 1130.54C1322.03 1074.09 1357.5 1020.98 1392.26 968.475C1438.26 899.051 1487.46 831.741 1538.81 766.227C1541.52 762.796 1541 752.582 1536.17 758.726C1461.52 853.925 1392.06 952.994 1328.94 1056.25C1295.9 1110.28 1268.33 1166.29 1246.19 1225.66C1223.48 1286.47 1205.33 1351.19 1204.05 1416.5C1203.02 1469.53 1217.02 1524.55 1263.58 1555.19C1309.11 1585.15 1373.7 1583.24 1424.77 1572.83C1488.89 1559.74 1547.06 1525.82 1599.09 1487.36C1711.17 1404.49 1796.59 1292.89 1891.55 1192.31C1894.11 1189.56 1895.22 1178.02 1890.67 1182.81Z" fill="#F5F7C1"/>
<path d="M1865.74 1109.48C1747.84 1272.9 1622.59 1464.62 1416.4 1519.8C1372.55 1531.53 1315.89 1537.04 1281.34 1501.29C1254.8 1473.84 1258.24 1428.35 1263.9 1393.88C1269.89 1357.41 1281.98 1322.14 1294.46 1287.47C1312.14 1238.35 1330.93 1189.76 1351.92 1141.92C1416.04 995.647 1496.83 857.357 1577.99 720.064C1581.18 714.678 1576.35 707.616 1572.32 714.478C1457.89 907.989 1346.61 1104.29 1275.67 1318.59C1257.04 1374.81 1232.02 1456.2 1272.92 1508.51C1297.3 1539.71 1342.9 1542.54 1378.89 1538.27C1425.77 1532.73 1473.53 1514.85 1515.07 1492.83C1669.47 1411 1771.97 1252.88 1871.4 1115.02C1875.15 1109.92 1870.33 1103.09 1865.74 1109.48Z" fill="#F5F7C1"/>
<path d="M1813.83 1107.08C1781.79 1161.67 1742.29 1210.94 1700.28 1258.1C1663.61 1299.32 1625.98 1340.33 1587.56 1379.87C1570.17 1397.79 1549.98 1418.54 1527.35 1429.55C1512.07 1436.97 1495.67 1442.24 1479.52 1447.26C1440.93 1459.27 1398.56 1469.85 1357.9 1467.05C1272.6 1461.19 1308.39 1330.12 1322.95 1280.37C1336.6 1233.72 1355.99 1188.68 1374.78 1143.95C1399.68 1084.66 1426.81 1026.33 1455.46 968.755C1500.54 878.064 1550.22 789.688 1603.6 703.666C1605.04 701.312 1607.23 690.579 1603.24 697.043C1538.77 800.94 1480.07 908.348 1427.45 1018.75C1384.52 1108.76 1340.63 1202.04 1314.37 1298.6C1301.81 1344.84 1274.24 1447.54 1333.68 1474C1363.65 1487.32 1407.62 1475.59 1437.74 1468.73C1473.45 1460.59 1511.99 1450.61 1541.92 1428.83C1568.17 1409.72 1590.43 1385.38 1612.18 1361.48C1635.92 1335.39 1660.22 1309.89 1684.04 1283.88C1732.36 1231.09 1777.96 1175.55 1814.23 1113.71C1815.58 1111.35 1817.66 1100.54 1813.83 1107.08Z" fill="#F5F7C1"/>
<path d="M1769.58 1069.9C1717.87 1149.62 1666.4 1231.65 1592.99 1293.49C1559.35 1321.82 1520.77 1344.04 1479.36 1358.77C1443.25 1371.61 1395.29 1378.88 1370.79 1342.13C1344.26 1302.31 1371.99 1243.7 1389.22 1205.79C1409.29 1161.75 1427.57 1117.66 1445.04 1072.45C1487.1 963.607 1530.99 855.242 1589.52 754.018C1592.75 748.472 1587.36 741.41 1583.41 748.273C1521.85 854.763 1476.36 969.074 1432.12 1083.54C1413.68 1131.3 1392.22 1177.11 1372.35 1224.23C1357.74 1258.78 1342.5 1304.5 1358.7 1341.17C1393.81 1420.69 1507.33 1363.2 1556.68 1331.87C1639.27 1279.45 1697.04 1196.02 1749.75 1115.62C1758.45 1102.34 1767.07 1088.97 1775.69 1075.68C1779.24 1070.22 1773.89 1063.28 1769.58 1069.9Z" fill="#F5F7C1"/>
<path d="M1586.44 867.212C1536.89 953.593 1489.49 1041.25 1449.59 1132.62C1433.27 1169.97 1399.08 1240.67 1442.25 1271.95C1466.07 1289.18 1500.38 1280.13 1524.8 1269.91C1556.44 1256.71 1584.37 1234.4 1610.06 1212.06C1677.17 1153.69 1732.71 1083.7 1797.43 1022.9C1799.94 1020.54 1801.62 1009.13 1796.87 1013.6C1738.1 1068.82 1685.95 1130.62 1627.54 1186.32C1586.96 1224.99 1524.36 1281.52 1463.16 1267.84C1393.81 1252.36 1446.96 1151.73 1463.91 1113.91C1501.06 1030.84 1545.07 950.96 1590.31 872.119C1592.91 867.332 1590.47 860.19 1586.44 867.212Z" fill="#F5F7C1"/>
<path d="M1617.45 933.763C1589.52 969.473 1565.9 1009.41 1544.43 1049.27C1523.08 1088.89 1493.8 1141.36 1500.06 1188.28C1502.38 1205.71 1513.43 1216.01 1530.23 1219.8C1555.28 1225.5 1576.11 1202.04 1589.48 1184.45C1608.95 1158.83 1622.67 1129.63 1642.54 1104.17C1672.39 1065.95 1708.1 1032.95 1734.15 991.737C1736.15 988.545 1736.35 977.971 1732.2 984.515C1695.25 1042.97 1641.86 1088.09 1606.51 1147.94C1592.47 1171.72 1574.87 1203.32 1545.23 1208.79C1523.68 1212.78 1507.68 1196.5 1505.93 1176.59C1501.9 1131.5 1533.18 1080.51 1554.05 1042.73C1573.4 1007.66 1594.7 972.585 1619.44 940.945C1621.8 937.913 1622.23 927.619 1617.45 933.763Z" fill="#F5F7C1"/>
<path d="M-9.99044 -93.8459C161.066 -53.2396 351.209 -35.3548 497.443 71.1825C557.485 114.931 618.57 189.452 613.987 268.254C610.267 331.953 550.641 371.676 497.955 395.091C418.924 430.17 328.885 443.868 243.129 449.105C180.171 452.973 116.445 448.808 53.597 444.965C-29.5279 439.837 -112.417 430.888 -194.829 419.174C-199.157 418.54 -207.744 424.097 -200.009 425.205C-80.2385 442.255 40.29 452.879 161.275 455.913C224.578 457.512 286.877 453.379 349.364 442.872C413.375 432.13 478.498 415.493 535.7 383.942C582.141 358.327 622.788 318.688 626.044 263.043C629.231 208.636 595.274 153.651 560.721 114.629C517.328 65.6454 458.871 32.2234 399.548 6.39691C271.742 -49.2289 132.384 -67.4092 -2.20554 -99.3539C-5.8665 -100.189 -16.4111 -95.391 -9.99044 -93.8459Z" fill="#F5F7C1"/>
<path d="M-61.0312 -35.5826C139.451 -15.1901 368.102 -2.5839 518.989 148.399C551.072 180.508 584.169 226.821 570.485 274.619C559.978 311.322 518.872 331.093 486.185 343.423C451.61 356.474 415.02 363.639 378.749 370.16C327.376 379.411 275.894 387.435 223.97 393.179C65.2384 410.786 -94.9219 409.96 -254.398 408.324C-260.659 408.253 -264.361 415.965 -256.403 416.024C-31.6028 418.368 194.04 416.587 415.097 370.874C473.099 358.902 556.097 339.87 580.948 278.299C595.78 241.586 575.431 200.675 553.739 171.642C525.496 133.815 486.136 101.392 446.295 76.4337C298.221 -16.3721 110.036 -26.0803 -59.0611 -43.2622C-65.3592 -43.9567 -68.854 -36.3644 -61.0312 -35.5826Z" fill="#F5F7C1"/>
<path d="M-37.1503 10.5685C26.1384 11.024 88.562 20.5945 150.411 33.3991C204.439 44.5459 258.772 56.6218 312.226 70.1269C336.438 76.235 364.501 83.3452 385.349 97.431C399.416 106.954 412.177 118.523 424.61 130.003C454.302 157.412 484.645 188.821 502.555 225.427C540.127 302.235 408.724 336.775 358.354 349.04C311.138 360.543 262.432 366.273 214.301 372.362C150.506 380.446 86.4235 386.116 22.239 390.093C-78.8441 396.393 -180.217 397.562 -281.407 394.34C-284.164 394.273 -294.556 397.739 -286.964 397.963C-164.748 401.853 -42.3839 398.977 79.5391 389.353C178.957 381.526 281.688 372.894 378.434 347.352C424.766 335.115 527.492 307.641 520.676 242.93C517.235 210.317 485.092 178.104 464.087 155.448C439.183 128.592 411.274 100.201 377.445 85.1779C347.767 71.9975 315.558 64.8859 283.988 58.004C249.52 50.4916 215.291 42.1962 180.852 34.5748C110.979 19.1236 40.0781 7.39863 -31.6139 6.91118C-34.3309 6.91338 -44.7322 10.523 -37.1503 10.5685Z" fill="#F5F7C1"/>
<path d="M-47.2304 67.4812C47.6621 72.4035 144.439 75.9615 234.704 108.618C276.055 123.583 314.592 145.884 348.05 174.389C377.23 199.237 407.498 237.139 387.924 276.728C366.706 319.616 302.082 324.907 260.638 328.932C212.456 333.576 165.137 339.795 117.25 347.263C1.9615 365.266 -113.83 381.44 -230.759 381.361C-237.177 381.336 -240.6 389.532 -232.682 389.521C-109.677 389.592 12.0617 371.828 133.32 352.912C183.897 344.997 234.297 340.684 285.04 334.332C322.265 329.702 369.484 320.039 393.139 287.677C444.449 217.511 337.901 147.953 286.099 120.871C199.4 75.5585 98.2616 67.2393 2.28294 61.7923C-13.5724 60.9029 -29.4569 60.1224 -45.2723 59.302C-51.7817 58.9598 -55.1208 67.0611 -47.2304 67.4812Z" fill="#F5F7C1"/>
<path d="M-131.194 327.425C-31.6081 327.15 68.006 324.371 167.083 313.24C207.585 308.7 285.91 302.962 291.415 249.934C294.432 220.688 269.432 195.5 248.377 179.46C221.12 158.663 187.84 145.627 155.642 134.546C71.5355 105.613 -16.8411 92.5062 -101.859 66.8634C-105.154 65.8635 -115.874 70.1179 -109.63 71.9954C-32.4227 95.2826 47.1747 109.542 124.617 132.279C178.388 148.089 258.652 174.035 277.402 233.883C298.668 301.677 184.951 305.965 143.716 310.192C53.2023 319.557 -37.9782 321.384 -128.879 321.62C-134.322 321.768 -139.29 327.447 -131.194 327.425Z" fill="#F5F7C1"/>
<path d="M-89.0593 267.301C-44.1692 273.634 2.22907 274.121 47.4809 272.781C92.4655 271.457 152.546 270.586 190.049 241.7C203.992 230.978 207.381 216.26 202.265 199.818C194.678 175.265 163.946 168.959 142.025 166.181C110.106 162.126 77.9507 164.843 45.9707 160.363C-2.05381 153.629 -48.4844 139.201 -97.2053 137.246C-100.967 137.114 -110.223 142.228 -102.482 142.55C-33.3877 145.321 32.3848 168.99 101.89 169.68C129.506 169.953 165.671 169.391 185.227 192.332C199.455 208.996 193.357 230.991 176.992 242.466C139.962 268.499 80.162 266.904 37.0062 267.725C-3.04185 268.502 -44.0675 267.586 -83.8371 261.983C-87.6402 261.46 -96.7744 266.227 -89.0593 267.301Z" fill="#F5F7C1"/>
<path d="M-66.3959 230.029C-33.9074 240.896 1.56476 246.078 35.5766 248.97C57.0828 250.789 106.507 256.117 118.956 231.238C143.09 183.027 -31.591 173.17 -56.2961 168.682C-60.9965 167.802 -69.1055 173.866 -61.3888 175.262C-32.1813 180.606 -2.46312 182.844 26.8121 187.826C45.2508 190.955 105.702 196.551 109.412 221.729C115.822 265.39 -36.7456 231.432 -58.7812 224.067C-62.7015 222.783 -72.943 227.866 -66.3959 230.029Z" fill="#F5F7C1"/>
<path d="M78.1029 2048.93C198.797 1921.1 309.357 1765.37 474.739 1692C542.647 1661.87 637.726 1646.23 703.679 1689.6C756.984 1724.67 761.573 1796.17 755.508 1853.51C746.371 1939.49 713.215 2024.32 674.872 2101.2C646.743 2157.66 611.273 2210.76 576.521 2263.27C530.517 2332.7 481.322 2400.01 429.972 2465.52C427.259 2468.95 427.778 2479.16 432.605 2473.02C507.256 2377.82 576.72 2278.75 639.841 2175.49C672.877 2121.47 700.447 2065.45 722.591 2006.08C745.294 1945.28 763.448 1880.56 764.725 1815.25C765.762 1762.22 751.757 1707.2 705.195 1676.56C659.67 1646.59 595.074 1648.51 544.003 1658.92C479.886 1672.01 421.713 1705.92 369.685 1744.39C257.608 1827.26 172.185 1938.85 77.2252 2039.44C74.6717 2042.19 73.5544 2053.72 78.1029 2048.93Z" fill="#F5F7C1"/>
<path d="M103.04 2122.27C220.941 1958.84 346.184 1767.13 552.382 1711.95C596.231 1700.22 652.888 1694.71 687.44 1730.46C713.973 1757.91 710.542 1803.4 704.876 1837.87C698.891 1874.34 686.802 1909.61 674.314 1944.28C656.638 1993.39 637.846 2041.99 616.859 2089.83C552.742 2236.1 471.946 2374.39 390.791 2511.68C387.6 2517.07 392.427 2524.13 396.457 2517.27C510.887 2323.76 622.166 2127.46 693.106 1913.16C711.739 1856.94 736.756 1775.55 695.859 1723.24C671.481 1692.04 625.876 1689.2 589.887 1693.47C543.006 1699.02 495.247 1716.89 453.712 1738.92C299.303 1820.75 196.803 1978.87 97.3744 2116.72C93.6239 2121.83 98.4516 2128.65 103.04 2122.27Z" fill="#F5F7C1"/>
<path d="M154.948 2124.66C186.987 2070.08 226.487 2020.81 268.501 1973.64C305.168 1932.43 342.793 1891.41 381.216 1851.87C398.612 1833.96 418.8 1813.21 441.423 1802.2C456.704 1794.78 473.103 1789.51 489.262 1784.48C527.844 1772.47 570.217 1761.9 610.874 1764.69C696.178 1770.56 660.389 1901.63 645.826 1951.38C632.18 1998.02 612.789 2043.07 593.997 2087.8C569.1 2147.09 541.969 2205.42 513.321 2262.99C468.235 2353.68 418.561 2442.06 365.176 2528.08C363.74 2530.43 361.545 2541.17 365.535 2534.7C430.012 2430.81 488.703 2323.4 541.33 2213C584.261 2122.99 628.15 2029.7 654.404 1933.15C666.972 1886.9 694.542 1784.2 635.093 1757.75C605.129 1744.42 561.16 1756.16 531.036 1763.02C495.327 1771.16 456.784 1781.13 426.86 1802.92C400.606 1822.03 378.343 1846.37 356.598 1870.27C332.858 1896.36 308.559 1921.86 284.74 1947.87C236.422 2000.66 190.818 2056.2 154.549 2118.04C153.193 2120.39 151.118 2131.21 154.948 2124.66Z" fill="#F5F7C1"/>
<path d="M199.196 2161.85C250.905 2082.13 302.375 2000.1 375.789 1938.25C409.424 1909.93 448.007 1887.7 489.422 1872.98C525.53 1860.13 573.489 1852.87 597.987 1889.62C624.52 1929.44 596.79 1988.05 579.553 2025.95C559.484 2070 541.211 2114.09 523.735 2159.29C481.681 2268.14 437.792 2376.5 379.26 2477.73C376.029 2483.27 381.415 2490.34 385.365 2483.47C446.929 2376.98 492.414 2262.67 536.662 2148.2C555.095 2100.44 576.561 2054.64 596.431 2007.52C611.034 1972.97 626.275 1927.24 610.076 1890.58C574.965 1811.06 461.453 1868.55 412.097 1899.87C329.507 1952.3 271.733 2035.73 219.026 2116.12C210.328 2129.41 201.71 2142.78 193.092 2156.06C189.541 2161.53 194.887 2168.47 199.196 2161.85Z" fill="#F5F7C1"/>
<path d="M382.333 2364.53C431.887 2278.15 479.287 2190.5 519.186 2099.13C535.505 2061.78 569.699 1991.08 526.528 1959.8C502.708 1942.56 468.395 1951.62 443.977 1961.83C412.337 1975.04 384.408 1997.34 358.713 2019.69C291.603 2078.06 236.063 2148.04 171.347 2208.85C168.833 2211.2 167.158 2222.61 171.906 2218.15C230.677 2162.93 282.825 2101.12 341.237 2045.42C381.814 2006.76 444.416 1950.22 505.621 1963.91C574.965 1979.39 521.82 2080.02 504.863 2117.84C467.717 2200.91 423.708 2280.79 378.463 2359.63C375.869 2364.41 378.303 2371.56 382.333 2364.53Z" fill="#F5F7C1"/>
</g>
<defs>
<clipPath id="clip0_1_3">
<rect width="1500" height="2000" fill="white" transform="translate(1500 2000) rotate(-180)"/>
</clipPath>
</defs>
</svg>
